<svg width="800" height="600" xmlns="http://www.w3.org/2000/svg">

 <g>
  <title>Layer 1</title>
  <g transform="rotate(8 400 300)" stroke-width="0">
   <path fill="#A04C33" d="m582.7465,98.99c0.563,0.423 0.905,1.077 0.905,1.782l0,377.315c0,12.295 -9.966,22.261 -22.261,22.261l-11.13,0l-256,0l-11.13,0l-33.391,0l-11.13,0c-6.147,0 -11.13,-4.983 -11.13,-11.13l0,-389.566l0,-31.676c-0.002,-13.242 9.964,-23.976 22.259,-23.976l11.13,0l11.131,0l289.391,0l11.13,0l4.96,0c2.008,0 2.982,2.442 1.532,3.83c-6.718,6.43 -10.803,14.831 -10.803,23.996c0,10.757 5.628,20.463 14.537,27.164z"/>
   <path fill="#DB6D53" d="m327.3125,455.826l0,100.174l-33.22,-19.915l-33.223,19.915l0,-100.174l66.443,0z"/>
   <path fill="#501919" d="m572.5215,99.652l0,378.435c0,12.295 -9.966,22.261 -22.261,22.261l-11.13,0l-256,0l-11.131,0l-33.391,0l-11.13,0c-6.147,0 -11.13,-4.983 -11.13,-11.13l0,-389.566l0,-22.261l341.255,0c1.635,8.856 7.092,16.689 14.918,22.261z"/>
   <path fill="#92462D" d="m249.7385,44l11.13,0l0,456.348l-22.26,0l-11.13,0c-6.147,0 -11.13,-4.983 -11.13,-11.13l0,-389.566l0,-31.676c-0.001,-13.242 9.965,-23.976 22.26,-23.976l11.13,0z"/>
   <path fill="#A09982" d="m260.8695,99.652c-12.295,0 -22.261,-9.966 -22.261,-22.261l0,-9.415c0,-13.242 9.966,-23.976 22.261,-23.976l305.481,0c2.008,0 2.982,2.442 1.532,3.83c-6.718,6.43 -10.803,14.831 -10.803,23.996l0,0c0,11.116 6.01,21.111 15.442,27.826l-311.652,0z"/>
   <path fill="#C1B69A" d="m271.9995,99.652c-12.295,0 -22.261,-9.966 -22.261,-22.261l0,-9.415c0,-13.242 9.966,-23.976 22.261,-23.976l294.351,0c2.008,0 2.982,2.442 1.532,3.83c-6.718,6.43 -10.803,14.831 -10.803,23.996l0,0c0,11.116 6.01,21.111 15.442,27.826l-300.522,0z"/>
   <path fill="#ACA38B" d="m557.0785,71.826c0,1.892 0.187,3.749 0.523,5.565l-246.645,0c-3.073,0 -5.565,-2.492 -5.565,-5.565s2.492,-5.565 5.565,-5.565l246.642,0c-0.336,1.816 -0.52,3.673 -0.52,5.565z"/>
   <path fill="#CEB896" d="m507.4025,238.223c0,17.568 -14.291,31.861 -31.859,31.861l-82.553,0c-5.293,0 -9.6,4.306 -9.6,9.6l0,20.729c0,6.147 -4.983,11.13 -11.13,11.13c-6.147,0 -11.13,-4.983 -11.13,-11.13l0,-20.729c0,-17.568 14.293,-31.861 31.861,-31.861l82.553,0c5.293,0 9.598,-4.306 9.598,-9.6c0,-5.293 -4.305,-9.6 -9.598,-9.6l-145.835,0c-17.567,0 -31.86,-14.293 -31.86,-31.86s14.291,-31.86 31.86,-31.86l90.543,0c5.293,0 9.6,-4.306 9.6,-9.599c0,-6.147 4.983,-11.13 11.13,-11.13c6.147,0 11.13,4.983 11.13,11.13c0,17.567 -14.293,31.86 -31.861,31.86l-90.542,0c-5.293,0 -9.599,4.306 -9.599,9.599s4.306,9.599 9.599,9.599l145.834,0c17.567,0 31.859,14.292 31.859,31.861z"/>
   <path fill="#98642E" d="m527.9995,434.368c0,6.147 -4.983,11.13 -11.13,11.13l-24.881,0c-0.022,0 -0.042,0.003 -0.065,0.003c-0.022,0 -0.042,-0.003 -0.065,-0.003l-157.122,0c-0.022,0 -0.042,0.003 -0.065,0.003s-0.042,-0.003 -0.065,-0.003l-24.88,0c-6.147,0 -11.13,-4.983 -11.13,-11.13c0,-6.147 4.983,-11.13 11.13,-11.13l13.814,0l0,-6.563c0,-45.72 34.371,-83.539 78.625,-89.041l0,-12.218c0,-6.147 4.983,-11.13 11.13,-11.13s11.13,4.983 11.13,11.13l0,12.218c44.256,5.503 78.627,43.321 78.627,89.04l0,6.563l13.815,0c6.149,0 11.132,4.983 11.132,11.131z"/>
   <g>
    <path fill="#D19B3F" d="m482.2415,359.28c-16.477,19.759 -41.265,32.359 -68.945,32.359c-27.679,0 -52.466,-12.601 -68.943,-32.359c16.477,-19.759 41.264,-32.359 68.943,-32.359c27.68,-0.001 52.466,12.6 68.945,32.359z"/>
    <path fill="#D19B3F" d="m527.9995,434.368c0,6.147 -4.983,11.13 -11.13,11.13l-207.142,0c-6.147,0 -11.13,-4.983 -11.13,-11.13c0,-6.147 4.983,-11.13 11.13,-11.13l207.142,0c6.147,-0.001 11.13,4.982 11.13,11.13z"/>
   </g>
   <g/>
   <g/>
   <g/>
   <g/>
   <g/>
   <g/>
   <g/>
   <g/>
   <g/>
   <g/>
   <g/>
   <g/>
   <g/>
   <g/>
   <g/>
  </g>
 </g>
</svg>