<?xml version="1.0" encoding="utf-8"?>
<svg viewBox="0 0 151 151" width="296px" height="296px" xmlns="http://www.w3.org/2000/svg">
  <g transform="matrix(1, 0, 0, 1, 9.189736, -28.513006)"/>
  <g transform="matrix(1, 0, 0, 1, 9.189736, -28.513006)"/>
  <g transform="matrix(1, 0, 0, 1, 9.189736, -28.513006)"/>
  <g transform="matrix(1, 0, 0, 1, 9.189736, -28.513006)"/>
  <g transform="matrix(1, 0, 0, 1, 9.189736, -28.513006)"/>
  <g transform="matrix(1, 0, 0, 1, 9.189736, -28.513006)"/>
  <g transform="matrix(1, 0, 0, 1, 9.189736, -28.513006)"/>
  <g transform="matrix(1, 0, 0, 1, 9.189736, -28.513006)"/>
  <g transform="matrix(1, 0, 0, 1, 9.189736, -28.513006)"/>
  <g transform="matrix(1, 0, 0, 1, 9.189736, -28.513006)"/>
  <g transform="matrix(1, 0, 0, 1, 9.189736, -28.513006)"/>
  <g transform="matrix(1, 0, 0, 1, 9.189736, -28.513006)"/>
  <g transform="matrix(1, 0, 0, 1, 9.189736, -28.513006)"/>
  <g transform="matrix(1, 0, 0, 1, 9.189736, -28.513006)"/>
  <g transform="matrix(1, 0, 0, 1, 9.189736, -28.513006)"/>
  <g transform="matrix(1, 0, 0, 1, 9.189736, -28.513006)"/>
  <g transform="matrix(1, 0, 0, 1, 9.189736, -28.513006)"/>
  <g transform="matrix(1, 0, 0, 1, 9.189736, -28.513006)"/>
  <g transform="matrix(1, 0, 0, 1, 9.189736, -28.513006)"/>
  <g transform="matrix(1, 0, 0, 1, 9.189736, -28.513006)"/>
  <g transform="matrix(1, 0, 0, 1, 9.189736, -28.513006)"/>
  <g transform="matrix(1, 0, 0, 1, 9.189736, -28.513006)"/>
  <g transform="matrix(1, 0, 0, 1, 9.189736, -28.513006)"/>
  <g transform="matrix(1, 0, 0, 1, 9.189736, -28.513006)"/>
  <g transform="matrix(1, 0, 0, 1, 9.189736, -28.513006)"/>
  <g transform="matrix(1, 0, 0, 1, 9.189736, -28.513006)"/>
  <g transform="matrix(1, 0, 0, 1, 9.189736, -28.513006)"/>
  <g transform="matrix(1, 0, 0, 1, 9.189736, -28.513006)"/>
  <g transform="matrix(1, 0, 0, 1, 9.189736, -28.513006)"/>
  <g transform="matrix(1, 0, 0, 1, 9.189736, -28.513006)"/>
  <g transform="matrix(1, 0, 0, 1, -80.344335, -67.454021)"/>
  <g transform="matrix(1, 0, 0, 1, -80.344335, -67.454021)"/>
  <g transform="matrix(1, 0, 0, 1, -80.344335, -67.454021)"/>
  <g transform="matrix(1, 0, 0, 1, -80.344335, -67.454021)"/>
  <g transform="matrix(1, 0, 0, 1, -80.344335, -67.454021)"/>
  <g transform="matrix(1, 0, 0, 1, -80.344335, -67.454021)"/>
  <g transform="matrix(1, 0, 0, 1, -80.344335, -67.454021)"/>
  <g transform="matrix(1, 0, 0, 1, -80.344335, -67.454021)"/>
  <g transform="matrix(1, 0, 0, 1, -80.344335, -67.454021)"/>
  <g transform="matrix(1, 0, 0, 1, -80.344335, -67.454021)"/>
  <g transform="matrix(1, 0, 0, 1, -80.344335, -67.454021)"/>
  <g transform="matrix(1, 0, 0, 1, -80.344335, -67.454021)"/>
  <g transform="matrix(1, 0, 0, 1, -80.344335, -67.454021)"/>
  <g transform="matrix(1, 0, 0, 1, -80.344335, -67.454021)"/>
  <g transform="matrix(1, 0, 0, 1, -80.344335, -67.454021)"/>
  <g transform="matrix(1, 0, 0, 1, -42.931605, -5.640024)"/>
  <g transform="matrix(1, 0, 0, 1, -42.931605, -5.640024)"/>
  <g transform="matrix(1, 0, 0, 1, -42.931605, -5.640024)"/>
  <g transform="matrix(1, 0, 0, 1, -42.931605, -5.640024)"/>
  <g transform="matrix(1, 0, 0, 1, -42.931605, -5.640024)"/>
  <g transform="matrix(1, 0, 0, 1, -42.931605, -5.640024)"/>
  <g transform="matrix(1, 0, 0, 1, -42.931605, -5.640024)"/>
  <g transform="matrix(1, 0, 0, 1, -42.931605, -5.640024)"/>
  <g transform="matrix(1, 0, 0, 1, -42.931605, -5.640024)"/>
  <g transform="matrix(1, 0, 0, 1, -42.931605, -5.640024)"/>
  <g transform="matrix(1, 0, 0, 1, -42.931605, -5.640024)"/>
  <g transform="matrix(1, 0, 0, 1, -42.931605, -5.640024)"/>
  <g transform="matrix(1, 0, 0, 1, -42.931605, -5.640024)"/>
  <g transform="matrix(1, 0, 0, 1, -42.931605, -5.640024)"/>
  <g transform="matrix(1, 0, 0, 1, -42.931605, -5.640024)"/>
  <g transform="matrix(0.453032, 0, 0, 0.462157, 6.344344, -12.321255)" style="">
    <path d="M 243.905 176.013 L 63.906 176.013 C 55.622 176.013 48.906 182.729 48.906 191.013 C 48.906 199.297 55.622 206.013 63.906 206.013 L 243.905 206.013 C 252.189 206.013 258.905 199.297 258.905 191.013 C 258.905 182.729 252.189 176.013 243.905 176.013 Z" style=""/>
  </g>
  <g transform="matrix(1, 0, 0, 1, -42.931605, -5.640024)"/>
  <g transform="matrix(1, 0, 0, 1, -42.931605, -5.640024)"/>
  <g transform="matrix(1, 0, 0, 1, -42.931605, -5.640024)"/>
  <g transform="matrix(1, 0, 0, 1, -42.931605, -5.640024)"/>
  <g transform="matrix(1, 0, 0, 1, -42.931605, -5.640024)"/>
  <g transform="matrix(1, 0, 0, 1, -42.931605, -5.640024)"/>
  <g transform="matrix(1, 0, 0, 1, -42.931605, -5.640024)"/>
  <g transform="matrix(1, 0, 0, 1, -42.931605, -5.640024)"/>
  <g transform="matrix(1, 0, 0, 1, -42.931605, -5.640024)"/>
  <g transform="matrix(1, 0, 0, 1, -42.931605, -5.640024)"/>
  <g transform="matrix(1, 0, 0, 1, -42.931605, -5.640024)"/>
  <g transform="matrix(1, 0, 0, 1, -42.931605, -5.640024)"/>
  <g transform="matrix(1, 0, 0, 1, -42.931605, -5.640024)"/>
  <g transform="matrix(1, 0, 0, 1, -42.931605, -5.640024)"/>
  <g transform="matrix(1, 0, 0, 1, -42.931605, -5.640024)"/>
</svg>