<?xml version="1.0" encoding="utf-8"?>
<svg viewBox="0 0 151 151" width="296px" height="296px" xmlns="http://www.w3.org/2000/svg">
  <g transform="matrix(1, 0, 0, 1, 9.189736, -28.513006)"/>
  <g transform="matrix(1, 0, 0, 1, 9.189736, -28.513006)"/>
  <g transform="matrix(1, 0, 0, 1, 9.189736, -28.513006)"/>
  <g transform="matrix(1, 0, 0, 1, 9.189736, -28.513006)"/>
  <g transform="matrix(1, 0, 0, 1, 9.189736, -28.513006)"/>
  <g transform="matrix(1, 0, 0, 1, 9.189736, -28.513006)"/>
  <g transform="matrix(1, 0, 0, 1, 9.189736, -28.513006)"/>
  <g transform="matrix(1, 0, 0, 1, 9.189736, -28.513006)"/>
  <g transform="matrix(1, 0, 0, 1, 9.189736, -28.513006)"/>
  <g transform="matrix(1, 0, 0, 1, 9.189736, -28.513006)"/>
  <g transform="matrix(1, 0, 0, 1, 9.189736, -28.513006)"/>
  <g transform="matrix(1, 0, 0, 1, 9.189736, -28.513006)"/>
  <g transform="matrix(1, 0, 0, 1, 9.189736, -28.513006)"/>
  <g transform="matrix(1, 0, 0, 1, 9.189736, -28.513006)"/>
  <g transform="matrix(1, 0, 0, 1, 9.189736, -28.513006)"/>
  <g transform="matrix(1, 0, 0, 1, 9.189736, -28.513006)"/>
  <g transform="matrix(1, 0, 0, 1, 9.189736, -28.513006)"/>
  <g transform="matrix(1, 0, 0, 1, 9.189736, -28.513006)"/>
  <g transform="matrix(1, 0, 0, 1, 9.189736, -28.513006)"/>
  <g transform="matrix(1, 0, 0, 1, 9.189736, -28.513006)"/>
  <g transform="matrix(1, 0, 0, 1, 9.189736, -28.513006)"/>
  <g transform="matrix(1, 0, 0, 1, 9.189736, -28.513006)"/>
  <g transform="matrix(1, 0, 0, 1, 9.189736, -28.513006)"/>
  <g transform="matrix(1, 0, 0, 1, 9.189736, -28.513006)"/>
  <g transform="matrix(1, 0, 0, 1, 9.189736, -28.513006)"/>
  <g transform="matrix(1, 0, 0, 1, 9.189736, -28.513006)"/>
  <g transform="matrix(1, 0, 0, 1, 9.189736, -28.513006)"/>
  <g transform="matrix(1, 0, 0, 1, 9.189736, -28.513006)"/>
  <g transform="matrix(1, 0, 0, 1, 9.189736, -28.513006)"/>
  <g transform="matrix(1, 0, 0, 1, 9.189736, -28.513006)"/>
  <g transform="matrix(1, 0, 0, 1, -80.344335, -67.454021)"/>
  <g transform="matrix(1, 0, 0, 1, -80.344335, -67.454021)"/>
  <g transform="matrix(1, 0, 0, 1, -80.344335, -67.454021)"/>
  <g transform="matrix(1, 0, 0, 1, -80.344335, -67.454021)"/>
  <g transform="matrix(1, 0, 0, 1, -80.344335, -67.454021)"/>
  <g transform="matrix(1, 0, 0, 1, -80.344335, -67.454021)"/>
  <g transform="matrix(1, 0, 0, 1, -80.344335, -67.454021)"/>
  <g transform="matrix(1, 0, 0, 1, -80.344335, -67.454021)"/>
  <g transform="matrix(1, 0, 0, 1, -80.344335, -67.454021)"/>
  <g transform="matrix(1, 0, 0, 1, -80.344335, -67.454021)"/>
  <g transform="matrix(1, 0, 0, 1, -80.344335, -67.454021)"/>
  <g transform="matrix(1, 0, 0, 1, -80.344335, -67.454021)"/>
  <g transform="matrix(1, 0, 0, 1, -80.344335, -67.454021)"/>
  <g transform="matrix(1, 0, 0, 1, -80.344335, -67.454021)"/>
  <g transform="matrix(1, 0, 0, 1, -80.344335, -67.454021)"/>
  <g transform="matrix(1, 0, 0, 1, -42.931605, -5.640024)"/>
  <g transform="matrix(1, 0, 0, 1, -42.931605, -5.640024)"/>
  <g transform="matrix(1, 0, 0, 1, -42.931605, -5.640024)"/>
  <g transform="matrix(1, 0, 0, 1, -42.931605, -5.640024)"/>
  <g transform="matrix(1, 0, 0, 1, -42.931605, -5.640024)"/>
  <g transform="matrix(1, 0, 0, 1, -42.931605, -5.640024)"/>
  <g transform="matrix(1, 0, 0, 1, -42.931605, -5.640024)"/>
  <g transform="matrix(1, 0, 0, 1, -42.931605, -5.640024)"/>
  <g transform="matrix(1, 0, 0, 1, -42.931605, -5.640024)"/>
  <g transform="matrix(1, 0, 0, 1, -42.931605, -5.640024)"/>
  <g transform="matrix(1, 0, 0, 1, -42.931605, -5.640024)"/>
  <g transform="matrix(1, 0, 0, 1, -42.931605, -5.640024)"/>
  <g transform="matrix(1, 0, 0, 1, -42.931605, -5.640024)"/>
  <g transform="matrix(1, 0, 0, 1, -42.931605, -5.640024)"/>
  <g transform="matrix(1, 0, 0, 1, -42.931605, -5.640024)"/>
  <g transform="matrix(1, 0, 0, 1, -42.931605, -5.640024)"/>
  <g transform="matrix(1, 0, 0, 1, -42.931605, -5.640024)"/>
  <g transform="matrix(1, 0, 0, 1, -42.931605, -5.640024)"/>
  <g transform="matrix(1, 0, 0, 1, -42.931605, -5.640024)"/>
  <g transform="matrix(1, 0, 0, 1, -42.931605, -5.640024)"/>
  <g transform="matrix(1, 0, 0, 1, -42.931605, -5.640024)"/>
  <g transform="matrix(1, 0, 0, 1, -42.931605, -5.640024)"/>
  <g transform="matrix(1, 0, 0, 1, -42.931605, -5.640024)"/>
  <g transform="matrix(1, 0, 0, 1, -42.931605, -5.640024)"/>
  <g transform="matrix(1, 0, 0, 1, -42.931605, -5.640024)"/>
  <g transform="matrix(1, 0, 0, 1, -42.931605, -5.640024)"/>
  <g transform="matrix(1, 0, 0, 1, -42.931605, -5.640024)"/>
  <g transform="matrix(1, 0, 0, 1, -42.931605, -5.640024)"/>
  <g transform="matrix(1, 0, 0, 1, -42.931605, -5.640024)"/>
  <g transform="matrix(1, 0, 0, 1, -42.931605, -5.640024)"/>
  <g transform="matrix(1, 0, 0, 1, 8.941673, -25.970188)"/>
  <g transform="matrix(1, 0, 0, 1, 8.941673, -25.970188)"/>
  <g transform="matrix(1, 0, 0, 1, 8.941673, -25.970188)"/>
  <g transform="matrix(1, 0, 0, 1, 8.941673, -25.970188)"/>
  <g transform="matrix(1, 0, 0, 1, 8.941673, -25.970188)"/>
  <g transform="matrix(1, 0, 0, 1, 8.941673, -25.970188)"/>
  <g transform="matrix(1, 0, 0, 1, 8.941673, -25.970188)"/>
  <g transform="matrix(1, 0, 0, 1, 8.941673, -25.970188)"/>
  <g transform="matrix(1, 0, 0, 1, 8.941673, -25.970188)"/>
  <g transform="matrix(1, 0, 0, 1, 8.941673, -25.970188)"/>
  <g transform="matrix(1, 0, 0, 1, 8.941673, -25.970188)"/>
  <g transform="matrix(1, 0, 0, 1, 8.941673, -25.970188)"/>
  <g transform="matrix(1, 0, 0, 1, 8.941673, -25.970188)"/>
  <g transform="matrix(1, 0, 0, 1, 8.941673, -25.970188)"/>
  <g transform="matrix(1, 0, 0, 1, 8.941673, -25.970188)"/>
  <g transform="matrix(1, 0, 0, 1, 8.941673, -25.970188)"/>
  <g transform="matrix(1, 0, 0, 1, 8.941673, -25.970188)"/>
  <g transform="matrix(1, 0, 0, 1, 8.941673, -25.970188)"/>
  <g transform="matrix(1, 0, 0, 1, 8.941673, -25.970188)"/>
  <g transform="matrix(1, 0, 0, 1, 8.941673, -25.970188)"/>
  <g transform="matrix(1, 0, 0, 1, 8.941673, -25.970188)"/>
  <g transform="matrix(1, 0, 0, 1, 8.941673, -25.970188)"/>
  <g transform="matrix(1, 0, 0, 1, 8.941673, -25.970188)"/>
  <g transform="matrix(1, 0, 0, 1, 8.941673, -25.970188)"/>
  <g transform="matrix(1, 0, 0, 1, 8.941673, -25.970188)"/>
  <g transform="matrix(1, 0, 0, 1, 8.941673, -25.970188)"/>
  <g transform="matrix(1, 0, 0, 1, 8.941673, -25.970188)"/>
  <g transform="matrix(1, 0, 0, 1, 8.941673, -25.970188)"/>
  <g transform="matrix(1, 0, 0, 1, 8.941673, -25.970188)"/>
  <g transform="matrix(1, 0, 0, 1, 8.941673, -25.970188)"/>
  <line style="stroke-linejoin: round; stroke-linecap: round; stroke: rgb(0, 0, 0); stroke-width: 20px;" x1="72.963" y1="32.154" x2="72.963" y2="118.225" transform="matrix(1, -0.000081, 0.000081, 1, -0.00609, 0.00591)"/>
  <line style="stroke-linejoin: round; stroke-linecap: round; stroke: rgb(0, 0, 0); stroke-width: 20px;" x1="72.963" y1="33.636" x2="72.963" y2="115.659" transform="matrix(0.000073, 1, -1, 0.000073, 147.60517, 1.679053)"/>
</svg>